<svg xmlns="http://www.w3.org/2000/svg" xml:space="preserve" width="1500" height="185" data-id="lg_ayv3qFk6vqc96fhGBy" data-version="1"><g data-padding="20"><g transform="translate(10 3.606)scale(.96101)"><path fill="#8f3434" d="M672.055 29.7v52.92h-7.8V29.7Zm-1.13 6.49V29.7h14.01q8.84 0 13.58 4.33 4.75 4.32 4.75 12.97 0 7.8-4.89 12.12-4.89 4.33-13.44 4.33h-14.01v-5.92h13.07q5.64 0 8.88-2.64 3.25-2.63 3.25-7.99 0-5.54-3.2-8.13-3.2-2.58-8.93-2.58Zm46.17 46.43h-7.8V44.18h7.23l.66 11.09-.09 8.27Zm0-17.29-.28-8.46q.09-2.07.94-4.28.84-2.21 2.58-4.14 1.74-1.92 4.51-3.1 2.78-1.17 6.72-1.17h1.6v8.65h-1.69q-4.23 0-7.05.79-2.82.8-4.42 2.4t-2.25 3.95q-.66 2.35-.66 5.36m38.81 18.23q-6.2 0-10.43-2.53-4.23-2.54-6.35-7.01-2.11-4.46-2.11-10.1 0-5.83 2.11-10.3 2.12-4.46 6.35-7t10.52-2.54q9.22 0 14.01 5.46 4.79 5.45 4.79 14.38 0 5.54-2.02 10.01-2.02 4.46-6.2 7.05-4.18 2.58-10.67 2.58m0-6.67q4.61 0 7.05-1.97 2.44-1.98 3.34-5.03.89-3.06.89-6.25 0-3.2-.89-6.26-.9-3.05-3.34-5.07t-7.05-2.02q-4.42 0-6.91 2.02t-3.43 5.07q-.94 3.06-.94 6.26 0 3.19.94 6.25.94 3.05 3.43 5.03 2.49 1.97 6.91 1.97m42.96 6.67q-5.64 0-9.26-2.53-3.62-2.54-5.36-6.96t-1.74-10.06q0-5.92 1.79-10.39 1.78-4.46 5.4-6.95t9.17-2.49q3.76 0 6.34 1.22 2.59 1.22 4.09 2.91 1.51 1.7 2.21 3.11.71 1.41.8 1.78h.19V29.7h8.08v52.92h-6.77l-1.22-7.7h-.19q-.18.37-.94 1.73-.75 1.37-2.35 2.97-1.59 1.59-4.13 2.77-2.54 1.17-6.11 1.17m2.25-6.76q3.67 0 6.21-1.6t3.8-4.51q1.27-2.92 1.27-6.77 0-3.76-1.22-6.68-1.22-2.91-3.62-4.46-2.39-1.55-6.06-1.55-4.14 0-6.63 1.78-2.49 1.79-3.57 4.7-1.08 2.92-1.08 6.21t.99 6.25q.98 2.96 3.38 4.79 2.4 1.84 6.53 1.84m41.28 6.76q-3.85 0-6.44-1.22-2.58-1.22-4.14-3.29-1.55-2.07-2.3-4.6-.75-2.54-1.03-5.27-.28-2.72-.28-5.26V44.18h7.7v19.74q0 3.38.66 6.25t2.73 4.65q2.07 1.79 6.11 1.79 3.95 0 6.11-1.84 2.16-1.83 3.05-4.65.9-2.82.99-5.83V44.18h8.08v38.44h-6.67l-1.32-7.99h-.18q-.29.94-1.13 2.4-.85 1.46-2.35 2.96-1.51 1.51-3.9 2.54-2.4 1.03-5.69 1.03m46.81 0q-5.36 0-9.68-2.25-4.32-2.26-6.86-6.58-2.54-4.33-2.54-10.53.19-6.2 2.68-10.72 2.49-4.51 6.81-6.95 4.33-2.45 9.78-2.45t9.35 2.07 6.16 5.36 2.73 7.14h-7.24q-.75-3.66-3.57-5.73t-7.15-2.07q-3.76 0-6.39 1.65-2.63 1.64-4.04 4.51t-1.51 6.63q0 5.92 3.11 9.49 3.1 3.57 8.74 3.57 4.04 0 7.05-2.07 3.01-2.06 3.76-6.01h7.24q-.47 3.95-2.78 7.33-2.3 3.38-6.25 5.5-3.95 2.11-9.4 2.11m45.02-.95h-8.65q-3.95 0-5.83-2.06-1.88-2.07-1.88-6.3V48.87h7.43v27.54h8.93Zm-.1-32.8h-22.18v-5.64q2.16 0 3.52-.28 1.37-.29 2.07-1.18.71-.89.99-2.91t.28-5.5h6.49v9.87h8.83Zm-249.85 112.54q-4.32 0-8.36-1.03-4.05-1.03-7.34-3.2-3.29-2.16-5.26-5.59t-2.07-8.22h7.9q0 .28.19 1.5.18 1.22.98 2.82t2.45 3.1q1.64 1.51 4.6 2.49 2.96.99 7.48.99 3.47 0 5.82-.75t3.76-1.98q1.41-1.22 2.02-2.53.62-1.32.62-2.35 0-2.92-1.84-4.7-1.83-1.79-4.93-2.87t-6.82-1.97q-3.71-.9-7.38-1.98-3.66-1.08-6.72-2.87-3.05-1.78-4.74-4.65-1.7-2.87-1.51-7.38.28-4.32 3.01-7.42 2.73-3.11 7.47-4.75 4.75-1.65 10.86-1.65 5.55 0 10.2 1.98 4.65 1.97 7.52 5.87t2.77 9.92h-7.61q.09-3.29-1.32-5.31t-3.62-3.15-4.56-1.55-4.23-.42q-5.26 0-8.69 1.92-3.43 1.93-3.53 5.41-.09 3.01 1.79 4.79 1.88 1.79 4.98 2.82 3.1 1.04 6.86 1.88 3.76.85 7.43 1.88 3.67 1.04 6.72 2.78 3.06 1.73 4.79 4.65 1.74 2.91 1.56 7.52-.19 4.42-3.01 7.52t-7.52 4.79-10.72 1.69m46.34-.18q-6.48 0-10.62-2.87-4.13-2.87-6.11-7.43-1.97-4.56-1.97-9.44-.1-5.55 2.11-10.06t6.39-7.15q4.19-2.63 10.02-2.63 5.07 0 9.02 2.21t6.3 6.21q2.35 3.99 2.54 9.44.09.28.09 1.08v1.37h-29.05q0 6.01 2.96 9.35 2.97 3.34 8.23 3.34 3.95 0 6.72-2.02 2.77-2.03 3.43-5.41h7.62q-.57 3.95-2.82 7.14-2.26 3.2-6.02 5.03-3.76 1.84-8.84 1.84m-10.99-23.13h20.86q-.09-1.03-.51-2.72-.43-1.7-1.55-3.34-1.13-1.65-3.11-2.77-1.97-1.13-5.07-1.13-2.82 0-4.8.94-1.97.94-3.19 2.49t-1.84 3.29q-.61 1.74-.79 3.24m49.63 23.03q-5.27 0-8.6-2.54-3.34-2.53-4.89-6.95t-1.55-10.15q0-5.93 1.6-10.39 1.59-4.47 4.93-7 3.34-2.54 8.51-2.54 3.19 0 5.45.89t3.76 2.21 2.44 2.68 1.32 2.4h.19v-7.9h7.99v38.45h-6.68l-1.31-6.87h-.19q-.38 1.04-1.32 2.35-.94 1.32-2.49 2.54t-3.8 2.02q-2.26.8-5.36.8m3.1-6.67q3.76 0 5.92-1.65 2.16-1.64 3.1-4.56.94-2.91.94-6.67 0-4.04-.98-6.96-.99-2.91-3.15-4.46t-5.83-1.55q-3.85 0-6.16 1.74-2.3 1.74-3.29 4.65-.98 2.91-.98 6.49 0 3.66.98 6.62.99 2.96 3.29 4.66 2.31 1.69 6.16 1.69m33.38 5.82h-7.8v-38.45h7.24l.65 11.09-.09 8.27Zm0-17.3-.28-8.46q.09-2.07.94-4.28.84-2.21 2.58-4.13 1.74-1.93 4.51-3.1 2.78-1.18 6.73-1.18h1.59v8.65h-1.69q-4.23 0-7.05.8t-4.42 2.39q-1.59 1.6-2.25 3.95t-.66 5.36m39.19 18.25q-5.36 0-9.68-2.26-4.33-2.26-6.87-6.58-2.53-4.32-2.53-10.53.18-6.2 2.67-10.71 2.5-4.52 6.82-6.96t9.78-2.44q5.45 0 9.35 2.06 3.9 2.07 6.16 5.36 2.25 3.29 2.72 7.15h-7.24q-.75-3.67-3.57-5.74t-7.14-2.07q-3.76 0-6.39 1.65-2.64 1.64-4.05 4.51t-1.5 6.63q0 5.92 3.1 9.49t8.74 3.57q4.05 0 7.05-2.06 3.01-2.07 3.76-6.02h7.24q-.47 3.95-2.77 7.33-2.3 3.39-6.25 5.5-3.95 2.12-9.4 2.12m33.74-.95h-7.99v-52.93h7.99v23.41h.19q.1-.38.75-1.79.66-1.41 2.12-3.05 1.46-1.65 3.9-2.87t6.2-1.22q4.05 0 6.68 1.27t4.18 3.43 2.3 4.79q.76 2.64.99 5.27.24 2.63.24 4.89v18.8h-7.62v-18.9q0-3.57-.75-6.44-.75-2.86-2.73-4.51-1.97-1.64-5.92-1.64t-6.25 1.88-3.29 4.84-.99 6.44Z"/><rect width="367.6" height="184.82" x="162.415" y="-400.01" fill="none" rx="0" ry="0" transform="translate(496.7 400.1)"/><path fill="#8f3434" d="M631.747 155.66c-2.907-3.396-5.036-6.117-6.76-11.001-3.549-13.182.608-28.257.608-28.257h-.033a81.762 81.762 0 1 0-106.538 50.582V167l.524.203q6.084 2.281 12.557 3.549c16.73 3.768 48.925 8.044 93.76.524 11.138-1.91 11.358-9.194 5.882-15.616m-55.584-36.876a5.19 5.19 0 0 1-7.368.237l-10.952-10.31a22.984 22.984 0 0 1-33.495-20.364 22.984 22.984 0 0 1 22.95-22.933 22.984 22.984 0 0 1 22.95 22.95c0 5.07-1.656 9.718-4.445 13.52l10.14 9.532a5.24 5.24 0 0 1 .237 7.368"/><path fill="#8f3434" d="M547.288 74.54a13.824 13.824 0 0 0 0 27.632 13.824 13.824 0 0 0 0-27.631"/></g><path fill="transparent" stroke="transparent" d="M493.5 0h513v185h-513z"/></g></svg>